<svg xmlns="http://www.w3.org/2000/svg" width="480" height="222" viewBox="0 0 480 222" fill="none">
  <style>
    text { font-family: -apple-system, BlinkMacSystemFont, 'Segoe UI', Helvetica, Arial, sans-serif; }
    .title { font-size: 16px; font-weight: 600; fill: #0366d6; }
    .lang { font-size: 12px; fill: #777; }
    .pct { fill: #999; }
  </style>
  <text x="6" y="22" class="title">Most Used Languages</text>
  <g>
    <clipPath id="round"><rect x="6" y="40" width="468" height="10" rx="5"/></clipPath>
    <g clip-path="url(#round)">
      <rect x="6.00" y="40" width="94.66" height="10" fill="#3572A5"><title>Python</title></rect><rect x="100.66" y="40" width="90.63" height="10" fill="#3178c6"><title>TypeScript</title></rect><rect x="191.30" y="40" width="89.23" height="10" fill="#f1e05a"><title>JavaScript</title></rect><rect x="280.53" y="40" width="53.31" height="10" fill="#882B0F"><title>ActionScript</title></rect><rect x="333.84" y="40" width="30.88" height="10" fill="#41b883"><title>Vue</title></rect><rect x="364.72" y="40" width="28.87" height="10" fill="#89e051"><title>Shell</title></rect><rect x="393.59" y="40" width="26.38" height="10" fill="#563d7c"><title>CSS</title></rect><rect x="419.97" y="40" width="18.78" height="10" fill="#e34c26"><title>HTML</title></rect><rect x="438.75" y="40" width="16.05" height="10" fill="#F05138"><title>Swift</title></rect><rect x="454.80" y="40" width="5.17" height="10" fill="#AA6746"><title>Solidity</title></rect><rect x="459.98" y="40" width="4.03" height="10" fill="#c6538c"><title>SCSS</title></rect><rect x="464.00" y="40" width="3.38" height="10" fill="#199f4b"><title>Vim Script</title></rect><rect x="467.39" y="40" width="6.61" height="10" fill="#8b949e"><title>Other</title></rect>
    </g>
  </g>
  <circle cx="12.00" cy="68.00" r="5" fill="#3572A5"/><text x="24.00" y="72.00" class="lang">Python <tspan class="pct">20.2%</tspan></text><circle cx="246.00" cy="68.00" r="5" fill="#3178c6"/><text x="258.00" y="72.00" class="lang">TypeScript <tspan class="pct">19.4%</tspan></text><circle cx="12.00" cy="90.00" r="5" fill="#f1e05a"/><text x="24.00" y="94.00" class="lang">JavaScript <tspan class="pct">19.1%</tspan></text><circle cx="246.00" cy="90.00" r="5" fill="#882B0F"/><text x="258.00" y="94.00" class="lang">ActionScript <tspan class="pct">11.4%</tspan></text><circle cx="12.00" cy="112.00" r="5" fill="#41b883"/><text x="24.00" y="116.00" class="lang">Vue <tspan class="pct">6.6%</tspan></text><circle cx="246.00" cy="112.00" r="5" fill="#89e051"/><text x="258.00" y="116.00" class="lang">Shell <tspan class="pct">6.2%</tspan></text><circle cx="12.00" cy="134.00" r="5" fill="#563d7c"/><text x="24.00" y="138.00" class="lang">CSS <tspan class="pct">5.6%</tspan></text><circle cx="246.00" cy="134.00" r="5" fill="#e34c26"/><text x="258.00" y="138.00" class="lang">HTML <tspan class="pct">4.0%</tspan></text><circle cx="12.00" cy="156.00" r="5" fill="#F05138"/><text x="24.00" y="160.00" class="lang">Swift <tspan class="pct">3.4%</tspan></text><circle cx="246.00" cy="156.00" r="5" fill="#AA6746"/><text x="258.00" y="160.00" class="lang">Solidity <tspan class="pct">1.1%</tspan></text><circle cx="12.00" cy="178.00" r="5" fill="#c6538c"/><text x="24.00" y="182.00" class="lang">SCSS <tspan class="pct">0.9%</tspan></text><circle cx="246.00" cy="178.00" r="5" fill="#199f4b"/><text x="258.00" y="182.00" class="lang">Vim Script <tspan class="pct">0.7%</tspan></text><circle cx="12.00" cy="200.00" r="5" fill="#8b949e"/><text x="24.00" y="204.00" class="lang">Other <tspan class="pct">1.4%</tspan></text>
</svg>
