<svg xmlns="http://www.w3.org/2000/svg" width="480" height="222" viewBox="0 0 480 222" fill="none">
  <style>
    text { font-family: -apple-system, BlinkMacSystemFont, 'Segoe UI', Helvetica, Arial, sans-serif; }
    .title { font-size: 16px; font-weight: 600; fill: #0366d6; }
    .lang { font-size: 12px; fill: #777; }
    .pct { fill: #999; }
  </style>
  <text x="6" y="22" class="title">Most Used Languages</text>
  <g>
    <clipPath id="round"><rect x="6" y="40" width="468" height="10" rx="5"/></clipPath>
    <g clip-path="url(#round)">
      <rect x="6.00" y="40" width="85.55" height="10" fill="#3572A5"><title>Python</title></rect><rect x="91.55" y="40" width="82.42" height="10" fill="#3178c6"><title>TypeScript</title></rect><rect x="173.96" y="40" width="79.95" height="10" fill="#f1e05a"><title>JavaScript</title></rect><rect x="253.91" y="40" width="49.45" height="10" fill="#F05138"><title>Swift</title></rect><rect x="303.36" y="40" width="46.39" height="10" fill="#882B0F"><title>ActionScript</title></rect><rect x="349.75" y="40" width="31.82" height="10" fill="#89e051"><title>Shell</title></rect><rect x="381.57" y="40" width="26.87" height="10" fill="#41b883"><title>Vue</title></rect><rect x="408.44" y="40" width="23.39" height="10" fill="#563d7c"><title>CSS</title></rect><rect x="431.84" y="40" width="19.09" height="10" fill="#e34c26"><title>HTML</title></rect><rect x="450.93" y="40" width="4.50" height="10" fill="#AA6746"><title>Solidity</title></rect><rect x="455.43" y="40" width="3.50" height="10" fill="#c6538c"><title>SCSS</title></rect><rect x="458.93" y="40" width="3.43" height="10" fill="#844FBA"><title>HCL</title></rect><rect x="462.36" y="40" width="11.64" height="10" fill="#8b949e"><title>Other</title></rect>
    </g>
  </g>
  <circle cx="12.00" cy="68.00" r="5" fill="#3572A5"/><text x="24.00" y="72.00" class="lang">Python <tspan class="pct">18.3%</tspan></text><circle cx="246.00" cy="68.00" r="5" fill="#3178c6"/><text x="258.00" y="72.00" class="lang">TypeScript <tspan class="pct">17.6%</tspan></text><circle cx="12.00" cy="90.00" r="5" fill="#f1e05a"/><text x="24.00" y="94.00" class="lang">JavaScript <tspan class="pct">17.1%</tspan></text><circle cx="246.00" cy="90.00" r="5" fill="#F05138"/><text x="258.00" y="94.00" class="lang">Swift <tspan class="pct">10.6%</tspan></text><circle cx="12.00" cy="112.00" r="5" fill="#882B0F"/><text x="24.00" y="116.00" class="lang">ActionScript <tspan class="pct">9.9%</tspan></text><circle cx="246.00" cy="112.00" r="5" fill="#89e051"/><text x="258.00" y="116.00" class="lang">Shell <tspan class="pct">6.8%</tspan></text><circle cx="12.00" cy="134.00" r="5" fill="#41b883"/><text x="24.00" y="138.00" class="lang">Vue <tspan class="pct">5.7%</tspan></text><circle cx="246.00" cy="134.00" r="5" fill="#563d7c"/><text x="258.00" y="138.00" class="lang">CSS <tspan class="pct">5.0%</tspan></text><circle cx="12.00" cy="156.00" r="5" fill="#e34c26"/><text x="24.00" y="160.00" class="lang">HTML <tspan class="pct">4.1%</tspan></text><circle cx="246.00" cy="156.00" r="5" fill="#AA6746"/><text x="258.00" y="160.00" class="lang">Solidity <tspan class="pct">1.0%</tspan></text><circle cx="12.00" cy="178.00" r="5" fill="#c6538c"/><text x="24.00" y="182.00" class="lang">SCSS <tspan class="pct">0.7%</tspan></text><circle cx="246.00" cy="178.00" r="5" fill="#844FBA"/><text x="258.00" y="182.00" class="lang">HCL <tspan class="pct">0.7%</tspan></text><circle cx="12.00" cy="200.00" r="5" fill="#8b949e"/><text x="24.00" y="204.00" class="lang">Other <tspan class="pct">2.5%</tspan></text>
</svg>
