<svg xmlns="http://www.w3.org/2000/svg" width="480" height="222" viewBox="0 0 480 222" fill="none">
  <style>
    text { font-family: -apple-system, BlinkMacSystemFont, 'Segoe UI', Helvetica, Arial, sans-serif; }
    .title { font-size: 16px; font-weight: 600; fill: #0366d6; }
    .lang { font-size: 12px; fill: #777; }
    .pct { fill: #999; }
  </style>
  <text x="6" y="22" class="title">Most Used Languages</text>
  <g>
    <clipPath id="round"><rect x="6" y="40" width="468" height="10" rx="5"/></clipPath>
    <g clip-path="url(#round)">
      <rect x="6.00" y="40" width="90.67" height="10" fill="#3572A5"><title>Python</title></rect><rect x="96.67" y="40" width="85.98" height="10" fill="#3178c6"><title>TypeScript</title></rect><rect x="182.64" y="40" width="83.87" height="10" fill="#f1e05a"><title>JavaScript</title></rect><rect x="266.52" y="40" width="49.16" height="10" fill="#882B0F"><title>ActionScript</title></rect><rect x="315.68" y="40" width="35.32" height="10" fill="#F05138"><title>Swift</title></rect><rect x="351.00" y="40" width="28.48" height="10" fill="#41b883"><title>Vue</title></rect><rect x="379.49" y="40" width="28.39" height="10" fill="#89e051"><title>Shell</title></rect><rect x="407.87" y="40" width="24.53" height="10" fill="#563d7c"><title>CSS</title></rect><rect x="432.40" y="40" width="17.40" height="10" fill="#e34c26"><title>HTML</title></rect><rect x="449.80" y="40" width="4.77" height="10" fill="#AA6746"><title>Solidity</title></rect><rect x="454.57" y="40" width="3.71" height="10" fill="#c6538c"><title>SCSS</title></rect><rect x="458.28" y="40" width="3.64" height="10" fill="#844FBA"><title>HCL</title></rect><rect x="461.92" y="40" width="12.08" height="10" fill="#8b949e"><title>Other</title></rect>
    </g>
  </g>
  <circle cx="12.00" cy="68.00" r="5" fill="#3572A5"/><text x="24.00" y="72.00" class="lang">Python <tspan class="pct">19.4%</tspan></text><circle cx="246.00" cy="68.00" r="5" fill="#3178c6"/><text x="258.00" y="72.00" class="lang">TypeScript <tspan class="pct">18.4%</tspan></text><circle cx="12.00" cy="90.00" r="5" fill="#f1e05a"/><text x="24.00" y="94.00" class="lang">JavaScript <tspan class="pct">17.9%</tspan></text><circle cx="246.00" cy="90.00" r="5" fill="#882B0F"/><text x="258.00" y="94.00" class="lang">ActionScript <tspan class="pct">10.5%</tspan></text><circle cx="12.00" cy="112.00" r="5" fill="#F05138"/><text x="24.00" y="116.00" class="lang">Swift <tspan class="pct">7.5%</tspan></text><circle cx="246.00" cy="112.00" r="5" fill="#41b883"/><text x="258.00" y="116.00" class="lang">Vue <tspan class="pct">6.1%</tspan></text><circle cx="12.00" cy="134.00" r="5" fill="#89e051"/><text x="24.00" y="138.00" class="lang">Shell <tspan class="pct">6.1%</tspan></text><circle cx="246.00" cy="134.00" r="5" fill="#563d7c"/><text x="258.00" y="138.00" class="lang">CSS <tspan class="pct">5.2%</tspan></text><circle cx="12.00" cy="156.00" r="5" fill="#e34c26"/><text x="24.00" y="160.00" class="lang">HTML <tspan class="pct">3.7%</tspan></text><circle cx="246.00" cy="156.00" r="5" fill="#AA6746"/><text x="258.00" y="160.00" class="lang">Solidity <tspan class="pct">1.0%</tspan></text><circle cx="12.00" cy="178.00" r="5" fill="#c6538c"/><text x="24.00" y="182.00" class="lang">SCSS <tspan class="pct">0.8%</tspan></text><circle cx="246.00" cy="178.00" r="5" fill="#844FBA"/><text x="258.00" y="182.00" class="lang">HCL <tspan class="pct">0.8%</tspan></text><circle cx="12.00" cy="200.00" r="5" fill="#8b949e"/><text x="24.00" y="204.00" class="lang">Other <tspan class="pct">2.6%</tspan></text>
</svg>
