<svg xmlns="http://www.w3.org/2000/svg" width="480" height="222" viewBox="0 0 480 222" fill="none">
  <style>
    text { font-family: -apple-system, BlinkMacSystemFont, 'Segoe UI', Helvetica, Arial, sans-serif; }
    .title { font-size: 16px; font-weight: 600; fill: #0366d6; }
    .lang { font-size: 12px; fill: #777; }
    .pct { fill: #999; }
  </style>
  <text x="6" y="22" class="title">Most Used Languages</text>
  <g>
    <clipPath id="round"><rect x="6" y="40" width="468" height="10" rx="5"/></clipPath>
    <g clip-path="url(#round)">
      <rect x="6.00" y="40" width="98.29" height="10" fill="#3178c6"><title>TypeScript</title></rect><rect x="104.29" y="40" width="72.27" height="10" fill="#3572A5"><title>Python</title></rect><rect x="176.56" y="40" width="68.68" height="10" fill="#f1e05a"><title>JavaScript</title></rect><rect x="245.24" y="40" width="60.19" height="10" fill="#F05138"><title>Swift</title></rect><rect x="305.43" y="40" width="36.53" height="10" fill="#882B0F"><title>ActionScript</title></rect><rect x="341.96" y="40" width="25.67" height="10" fill="#89e051"><title>Shell</title></rect><rect x="367.64" y="40" width="21.16" height="10" fill="#41b883"><title>Vue</title></rect><rect x="388.80" y="40" width="19.08" height="10" fill="#563d7c"><title>CSS</title></rect><rect x="407.88" y="40" width="16.57" height="10" fill="#00ADD8"><title>Go</title></rect><rect x="424.45" y="40" width="14.87" height="10" fill="#e34c26"><title>HTML</title></rect><rect x="439.32" y="40" width="4.52" height="10" fill="#8b949e"><title>Astro</title></rect><rect x="443.85" y="40" width="3.79" height="10" fill="#178600"><title>C#</title></rect><rect x="447.64" y="40" width="26.36" height="10" fill="#8b949e"><title>Other</title></rect>
    </g>
  </g>
  <circle cx="12.00" cy="68.00" r="5" fill="#3178c6"/><text x="24.00" y="72.00" class="lang">TypeScript <tspan class="pct">21.0%</tspan></text><circle cx="246.00" cy="68.00" r="5" fill="#3572A5"/><text x="258.00" y="72.00" class="lang">Python <tspan class="pct">15.4%</tspan></text><circle cx="12.00" cy="90.00" r="5" fill="#f1e05a"/><text x="24.00" y="94.00" class="lang">JavaScript <tspan class="pct">14.7%</tspan></text><circle cx="246.00" cy="90.00" r="5" fill="#F05138"/><text x="258.00" y="94.00" class="lang">Swift <tspan class="pct">12.9%</tspan></text><circle cx="12.00" cy="112.00" r="5" fill="#882B0F"/><text x="24.00" y="116.00" class="lang">ActionScript <tspan class="pct">7.8%</tspan></text><circle cx="246.00" cy="112.00" r="5" fill="#89e051"/><text x="258.00" y="116.00" class="lang">Shell <tspan class="pct">5.5%</tspan></text><circle cx="12.00" cy="134.00" r="5" fill="#41b883"/><text x="24.00" y="138.00" class="lang">Vue <tspan class="pct">4.5%</tspan></text><circle cx="246.00" cy="134.00" r="5" fill="#563d7c"/><text x="258.00" y="138.00" class="lang">CSS <tspan class="pct">4.1%</tspan></text><circle cx="12.00" cy="156.00" r="5" fill="#00ADD8"/><text x="24.00" y="160.00" class="lang">Go <tspan class="pct">3.5%</tspan></text><circle cx="246.00" cy="156.00" r="5" fill="#e34c26"/><text x="258.00" y="160.00" class="lang">HTML <tspan class="pct">3.2%</tspan></text><circle cx="12.00" cy="178.00" r="5" fill="#8b949e"/><text x="24.00" y="182.00" class="lang">Astro <tspan class="pct">1.0%</tspan></text><circle cx="246.00" cy="178.00" r="5" fill="#178600"/><text x="258.00" y="182.00" class="lang">C# <tspan class="pct">0.8%</tspan></text><circle cx="12.00" cy="200.00" r="5" fill="#8b949e"/><text x="24.00" y="204.00" class="lang">Other <tspan class="pct">5.6%</tspan></text>
</svg>
