<svg xmlns="http://www.w3.org/2000/svg" width="480" height="222" viewBox="0 0 480 222" fill="none">
  <style>
    text { font-family: -apple-system, BlinkMacSystemFont, 'Segoe UI', Helvetica, Arial, sans-serif; }
    .title { font-size: 16px; font-weight: 600; fill: #0366d6; }
    .lang { font-size: 12px; fill: #777; }
    .pct { fill: #999; }
  </style>
  <text x="6" y="22" class="title">Most Used Languages</text>
  <g>
    <clipPath id="round"><rect x="6" y="40" width="468" height="10" rx="5"/></clipPath>
    <g clip-path="url(#round)">
      <rect x="6.00" y="40" width="102.72" height="10" fill="#3178c6"><title>TypeScript</title></rect><rect x="108.72" y="40" width="67.52" height="10" fill="#3572A5"><title>Python</title></rect><rect x="176.23" y="40" width="63.98" height="10" fill="#f1e05a"><title>JavaScript</title></rect><rect x="240.21" y="40" width="56.74" height="10" fill="#F05138"><title>Swift</title></rect><rect x="296.95" y="40" width="34.01" height="10" fill="#882B0F"><title>ActionScript</title></rect><rect x="330.97" y="40" width="25.71" height="10" fill="#89e051"><title>Shell</title></rect><rect x="356.67" y="40" width="24.57" height="10" fill="#00ADD8"><title>Go</title></rect><rect x="381.25" y="40" width="19.70" height="10" fill="#41b883"><title>Vue</title></rect><rect x="400.95" y="40" width="17.77" height="10" fill="#563d7c"><title>CSS</title></rect><rect x="418.72" y="40" width="13.87" height="10" fill="#e34c26"><title>HTML</title></rect><rect x="432.59" y="40" width="10.75" height="10" fill="#8b949e"><title>Astro</title></rect><rect x="443.34" y="40" width="4.04" height="10" fill="#00B4AB"><title>Dart</title></rect><rect x="447.38" y="40" width="26.62" height="10" fill="#8b949e"><title>Other</title></rect>
    </g>
  </g>
  <circle cx="12.00" cy="68.00" r="5" fill="#3178c6"/><text x="24.00" y="72.00" class="lang">TypeScript <tspan class="pct">21.9%</tspan></text><circle cx="246.00" cy="68.00" r="5" fill="#3572A5"/><text x="258.00" y="72.00" class="lang">Python <tspan class="pct">14.4%</tspan></text><circle cx="12.00" cy="90.00" r="5" fill="#f1e05a"/><text x="24.00" y="94.00" class="lang">JavaScript <tspan class="pct">13.7%</tspan></text><circle cx="246.00" cy="90.00" r="5" fill="#F05138"/><text x="258.00" y="94.00" class="lang">Swift <tspan class="pct">12.1%</tspan></text><circle cx="12.00" cy="112.00" r="5" fill="#882B0F"/><text x="24.00" y="116.00" class="lang">ActionScript <tspan class="pct">7.3%</tspan></text><circle cx="246.00" cy="112.00" r="5" fill="#89e051"/><text x="258.00" y="116.00" class="lang">Shell <tspan class="pct">5.5%</tspan></text><circle cx="12.00" cy="134.00" r="5" fill="#00ADD8"/><text x="24.00" y="138.00" class="lang">Go <tspan class="pct">5.3%</tspan></text><circle cx="246.00" cy="134.00" r="5" fill="#41b883"/><text x="258.00" y="138.00" class="lang">Vue <tspan class="pct">4.2%</tspan></text><circle cx="12.00" cy="156.00" r="5" fill="#563d7c"/><text x="24.00" y="160.00" class="lang">CSS <tspan class="pct">3.8%</tspan></text><circle cx="246.00" cy="156.00" r="5" fill="#e34c26"/><text x="258.00" y="160.00" class="lang">HTML <tspan class="pct">3.0%</tspan></text><circle cx="12.00" cy="178.00" r="5" fill="#8b949e"/><text x="24.00" y="182.00" class="lang">Astro <tspan class="pct">2.3%</tspan></text><circle cx="246.00" cy="178.00" r="5" fill="#00B4AB"/><text x="258.00" y="182.00" class="lang">Dart <tspan class="pct">0.9%</tspan></text><circle cx="12.00" cy="200.00" r="5" fill="#8b949e"/><text x="24.00" y="204.00" class="lang">Other <tspan class="pct">5.7%</tspan></text>
</svg>
