<svg xmlns="http://www.w3.org/2000/svg" width="480" height="222" viewBox="0 0 480 222" fill="none">
  <style>
    text { font-family: -apple-system, BlinkMacSystemFont, 'Segoe UI', Helvetica, Arial, sans-serif; }
    .title { font-size: 16px; font-weight: 600; fill: #0366d6; }
    .lang { font-size: 12px; fill: #777; }
    .pct { fill: #999; }
  </style>
  <text x="6" y="22" class="title">Most Used Languages</text>
  <g>
    <clipPath id="round"><rect x="6" y="40" width="468" height="10" rx="5"/></clipPath>
    <g clip-path="url(#round)">
      <rect x="6.00" y="40" width="102.72" height="10" fill="#3178c6"><title>TypeScript</title></rect><rect x="108.72" y="40" width="62.34" height="10" fill="#F05138"><title>Swift</title></rect><rect x="171.06" y="40" width="62.00" height="10" fill="#3572A5"><title>Python</title></rect><rect x="233.06" y="40" width="61.83" height="10" fill="#f1e05a"><title>JavaScript</title></rect><rect x="294.89" y="40" width="31.20" height="10" fill="#882B0F"><title>ActionScript</title></rect><rect x="326.10" y="40" width="27.37" height="10" fill="#00ADD8"><title>Go</title></rect><rect x="353.46" y="40" width="24.02" height="10" fill="#89e051"><title>Shell</title></rect><rect x="377.49" y="40" width="18.08" height="10" fill="#41b883"><title>Vue</title></rect><rect x="395.56" y="40" width="16.57" height="10" fill="#563d7c"><title>CSS</title></rect><rect x="412.13" y="40" width="13.59" height="10" fill="#8b949e"><title>Astro</title></rect><rect x="425.72" y="40" width="12.94" height="10" fill="#e34c26"><title>HTML</title></rect><rect x="438.66" y="40" width="6.87" height="10" fill="#178600"><title>C#</title></rect><rect x="445.53" y="40" width="28.47" height="10" fill="#8b949e"><title>Other</title></rect>
    </g>
  </g>
  <circle cx="12.00" cy="68.00" r="5" fill="#3178c6"/><text x="24.00" y="72.00" class="lang">TypeScript <tspan class="pct">21.9%</tspan></text><circle cx="246.00" cy="68.00" r="5" fill="#F05138"/><text x="258.00" y="72.00" class="lang">Swift <tspan class="pct">13.3%</tspan></text><circle cx="12.00" cy="90.00" r="5" fill="#3572A5"/><text x="24.00" y="94.00" class="lang">Python <tspan class="pct">13.2%</tspan></text><circle cx="246.00" cy="90.00" r="5" fill="#f1e05a"/><text x="258.00" y="94.00" class="lang">JavaScript <tspan class="pct">13.2%</tspan></text><circle cx="12.00" cy="112.00" r="5" fill="#882B0F"/><text x="24.00" y="116.00" class="lang">ActionScript <tspan class="pct">6.7%</tspan></text><circle cx="246.00" cy="112.00" r="5" fill="#00ADD8"/><text x="258.00" y="116.00" class="lang">Go <tspan class="pct">5.8%</tspan></text><circle cx="12.00" cy="134.00" r="5" fill="#89e051"/><text x="24.00" y="138.00" class="lang">Shell <tspan class="pct">5.1%</tspan></text><circle cx="246.00" cy="134.00" r="5" fill="#41b883"/><text x="258.00" y="138.00" class="lang">Vue <tspan class="pct">3.9%</tspan></text><circle cx="12.00" cy="156.00" r="5" fill="#563d7c"/><text x="24.00" y="160.00" class="lang">CSS <tspan class="pct">3.5%</tspan></text><circle cx="246.00" cy="156.00" r="5" fill="#8b949e"/><text x="258.00" y="160.00" class="lang">Astro <tspan class="pct">2.9%</tspan></text><circle cx="12.00" cy="178.00" r="5" fill="#e34c26"/><text x="24.00" y="182.00" class="lang">HTML <tspan class="pct">2.8%</tspan></text><circle cx="246.00" cy="178.00" r="5" fill="#178600"/><text x="258.00" y="182.00" class="lang">C# <tspan class="pct">1.5%</tspan></text><circle cx="12.00" cy="200.00" r="5" fill="#8b949e"/><text x="24.00" y="204.00" class="lang">Other <tspan class="pct">6.1%</tspan></text>
</svg>
