<svg xmlns="http://www.w3.org/2000/svg" width="480" height="222" viewBox="0 0 480 222" fill="none">
  <style>
    text { font-family: -apple-system, BlinkMacSystemFont, 'Segoe UI', Helvetica, Arial, sans-serif; }
    .title { font-size: 16px; font-weight: 600; fill: #0366d6; }
    .lang { font-size: 12px; fill: #777; }
    .pct { fill: #999; }
  </style>
  <text x="6" y="22" class="title">Most Used Languages</text>
  <g>
    <clipPath id="round"><rect x="6" y="40" width="468" height="10" rx="5"/></clipPath>
    <g clip-path="url(#round)">
      <rect x="6.00" y="40" width="103.19" height="10" fill="#3178c6"><title>TypeScript</title></rect><rect x="109.19" y="40" width="67.16" height="10" fill="#3572A5"><title>Python</title></rect><rect x="176.35" y="40" width="63.63" height="10" fill="#f1e05a"><title>JavaScript</title></rect><rect x="239.98" y="40" width="56.43" height="10" fill="#F05138"><title>Swift</title></rect><rect x="296.41" y="40" width="33.83" height="10" fill="#882B0F"><title>ActionScript</title></rect><rect x="330.24" y="40" width="25.57" height="10" fill="#89e051"><title>Shell</title></rect><rect x="355.81" y="40" width="25.15" height="10" fill="#00ADD8"><title>Go</title></rect><rect x="380.96" y="40" width="19.60" height="10" fill="#41b883"><title>Vue</title></rect><rect x="400.55" y="40" width="17.67" height="10" fill="#563d7c"><title>CSS</title></rect><rect x="418.23" y="40" width="13.79" height="10" fill="#e34c26"><title>HTML</title></rect><rect x="432.02" y="40" width="11.35" height="10" fill="#8b949e"><title>Astro</title></rect><rect x="443.37" y="40" width="4.10" height="10" fill="#00B4AB"><title>Dart</title></rect><rect x="447.48" y="40" width="26.52" height="10" fill="#8b949e"><title>Other</title></rect>
    </g>
  </g>
  <circle cx="12.00" cy="68.00" r="5" fill="#3178c6"/><text x="24.00" y="72.00" class="lang">TypeScript <tspan class="pct">22.1%</tspan></text><circle cx="246.00" cy="68.00" r="5" fill="#3572A5"/><text x="258.00" y="72.00" class="lang">Python <tspan class="pct">14.3%</tspan></text><circle cx="12.00" cy="90.00" r="5" fill="#f1e05a"/><text x="24.00" y="94.00" class="lang">JavaScript <tspan class="pct">13.6%</tspan></text><circle cx="246.00" cy="90.00" r="5" fill="#F05138"/><text x="258.00" y="94.00" class="lang">Swift <tspan class="pct">12.1%</tspan></text><circle cx="12.00" cy="112.00" r="5" fill="#882B0F"/><text x="24.00" y="116.00" class="lang">ActionScript <tspan class="pct">7.2%</tspan></text><circle cx="246.00" cy="112.00" r="5" fill="#89e051"/><text x="258.00" y="116.00" class="lang">Shell <tspan class="pct">5.5%</tspan></text><circle cx="12.00" cy="134.00" r="5" fill="#00ADD8"/><text x="24.00" y="138.00" class="lang">Go <tspan class="pct">5.4%</tspan></text><circle cx="246.00" cy="134.00" r="5" fill="#41b883"/><text x="258.00" y="138.00" class="lang">Vue <tspan class="pct">4.2%</tspan></text><circle cx="12.00" cy="156.00" r="5" fill="#563d7c"/><text x="24.00" y="160.00" class="lang">CSS <tspan class="pct">3.8%</tspan></text><circle cx="246.00" cy="156.00" r="5" fill="#e34c26"/><text x="258.00" y="160.00" class="lang">HTML <tspan class="pct">2.9%</tspan></text><circle cx="12.00" cy="178.00" r="5" fill="#8b949e"/><text x="24.00" y="182.00" class="lang">Astro <tspan class="pct">2.4%</tspan></text><circle cx="246.00" cy="178.00" r="5" fill="#00B4AB"/><text x="258.00" y="182.00" class="lang">Dart <tspan class="pct">0.9%</tspan></text><circle cx="12.00" cy="200.00" r="5" fill="#8b949e"/><text x="24.00" y="204.00" class="lang">Other <tspan class="pct">5.7%</tspan></text>
</svg>
